<?xml version="1.0" encoding="utf-8"?>
<!-- Generator: Adobe Illustrator 23.0.2, SVG Export Plug-In . SVG Version: 6.00 Build 0)  -->
<svg version="1.1" id="Capa_1" xmlns="http://www.w3.org/2000/svg" xmlns:xlink="http://www.w3.org/1999/xlink" x="0px" y="0px"
	 viewBox="0 0 1271 697.8" style="enable-background:new 0 0 1271 697.8;" xml:space="preserve">
<style type="text/css">
	.st0{fill:#5E8F97;}
</style>
<g>
	<path class="st0" d="M202.7,524.1v34.2c0,2.9-2.4,5.3-5.3,5.3H43.5c-2.9,0-5.3-2.4-5.3-5.3V364.1c0-2.9,2.4-5.3,5.3-5.3h150
		c2.9,0,5.3,2.4,5.3,5.3v34.2c0,2.9-2.4,5.3-5.3,5.3h-92.7c-2.9,0-5.3,2.4-5.3,5.3v24c0,2.9,2.4,5.3,5.3,5.3h80.4
		c2.9,0,5.3,2.4,5.3,5.3v32.7c0,2.9-2.4,5.3-5.3,5.3h-80.4c-2.9,0-5.3,2.4-5.3,5.3v26.9c0,2.9,2.4,5.3,5.3,5.3h96.5
		C200.3,518.9,202.7,521.2,202.7,524.1z"/>
	<path class="st0" d="M369.7,527.4v31c0,2.9-2.4,5.3-5.3,5.3H228.7c-2.9,0-5.3-2.4-5.3-5.3v-25.5c0-1.3,0.5-2.5,1.3-3.5l64.5-74.3
		c3-3.4,0.5-8.7-4-8.7h-54.5c-2.9,0-5.3-2.4-5.3-5.3v-30.7c0-2.9,2.4-5.3,5.3-5.3h130.7c2.9,0,5.3,2.4,5.3,5.3v25.2
		c0,1.3-0.5,2.5-1.3,3.5l-64.5,74.3c-3,3.4-0.5,8.7,4,8.7h59.5C367.3,522.1,369.7,524.5,369.7,527.4z"/>
	<path class="st0" d="M382.5,484.1c0-47.7,37.7-81.6,91-81.6c33.9,0,60.3,14.3,72.3,39c1.2,2.5,0.1,5.6-2.4,6.9l-34.1,17.4
		c-2.4,1.2-5.4,0.5-6.8-1.8c-7.5-12-17.7-17.2-29.3-17.2c-19.3,0-34.5,13.5-34.5,37.4c0,24.6,15.2,38,34.5,38
		c11.6,0,21.8-5.2,29.3-17.2c1.4-2.3,4.4-3,6.8-1.8l34.1,17.4c2.5,1.3,3.7,4.3,2.4,6.9c-12,24.7-38.4,39-72.3,39
		C420.3,566.3,382.5,532.3,382.5,484.1z"/>
	<path class="st0" d="M557.2,484.1c0-47.7,37.7-81.6,89.5-81.6c52.4,0,89.5,33.9,89.5,81.6c0,48-37.1,82.2-89.5,82.2
		C594.9,566.3,557.2,532,557.2,484.1z M680,484.1c0-24-14.3-37.4-33.3-37.4c-18.7,0-33.3,13.5-33.3,37.4c0,24.3,14.6,38,33.3,38
		C665.7,522.1,680,508.3,680,484.1z"/>
	<path class="st0" d="M939.5,484.1c0,50.6-34.8,82.2-77.8,82.2c-20.8,0-36.3-5.8-46.8-18.4v10.5c0,2.9-2.4,5.3-5.3,5.3h-42.4
		c-2.9,0-5.3-2.4-5.3-5.3V351.8c0-2.9,2.4-5.3,5.3-5.3h45c2.9,0,5.3,2.4,5.3,5.3v55.8c0,4.2,4.6,6.7,8.1,4.4
		c9.8-6.5,21.9-9.6,36.1-9.6C904.7,402.4,939.5,433.7,939.5,484.1z M883.3,484.1c0-24-14.6-37.4-33.4-37.4
		c-18.7,0-33.3,13.5-33.3,37.4c0,24.3,14.6,38,33.3,38C868.7,522.1,883.3,508.3,883.3,484.1z"/>
	<path class="st0" d="M1110.3,475.6v82.8c0,2.9-2.4,5.3-5.3,5.3h-41.2c-2.9,0-5.3-2.4-5.3-5.3l0,0c0-4.5-5.3-6.9-8.7-3.9
		c-8.8,7.8-21.6,11.9-38.1,11.9c-38,0-59.1-21.4-59.1-48.9c0-29.2,21.4-47.4,70.5-47.4h25.5c3.3,0,6-3.1,5.2-6.4
		c-3.2-12.1-13.8-18.8-32.7-18.8c-13.1,0-27.6,3.9-38.3,10.5c-2.6,1.6-6,0.6-7.4-2.2l-13.9-28c-1.2-2.5-0.4-5.5,2-6.9
		c17.9-10.4,42.8-15.9,65.8-15.9C1080.8,402.4,1110.3,425.3,1110.3,475.6z M1054.7,511.7v-7.4c0-2.9-2.4-5.3-5.3-5.3h-18.7
		c-17.8,0-24.3,6.4-24.3,16.1c0,9.4,7.6,16.1,20.8,16.1c12,0,22.5-5.5,27.1-17.4C1054.6,513.1,1054.7,512.4,1054.7,511.7z"/>
	<path class="st0" d="M1251.6,407.9v38.8c0,3.1-2.6,5.5-5.7,5.3c-2.4-0.2-4.5-0.3-6.9-0.3c-22.5,0-38,11.4-38,39.2v67.6
		c0,2.9-2.4,5.3-5.3,5.3h-45c-2.9,0-5.3-2.4-5.3-5.3v-148c0-2.9,2.4-5.3,5.3-5.3h42.4c2.9,0,5.3,2.4,5.3,5.3v1.2
		c0,4.4,5.1,6.8,8.5,4.1c10.1-7.9,23.4-12.3,39.3-13.1C1249.1,402.4,1251.6,404.9,1251.6,407.9z"/>
</g>
<g>
	<path class="st0" d="M20.7,293.4l24.6-29.2c2.1-2.4,5.8-2.5,7.9-0.1c9.7,11,19.9,16.7,31.5,16.7c16.7,0,25.7-10.2,25.7-29.8v-82.8
		c0-2.9-2.4-5.3-5.3-5.3H45c-2.9,0-5.3-2.4-5.3-5.3v-34.2c0-2.9,2.4-5.3,5.3-5.3h117.6c2.9,0,5.3,2.4,5.3,5.3v124
		c0,53.2-27.5,79.6-79,79.6c-28,0-52.2-9.3-68.1-26.7C19,298.3,19,295.4,20.7,293.4z"/>
	<path class="st0" d="M353,234.8v82.8c0,2.9-2.4,5.3-5.3,5.3h-41.2c-2.9,0-5.3-2.4-5.3-5.3l0,0c0-4.5-5.3-6.9-8.7-3.9
		c-8.8,7.8-21.6,11.9-38.1,11.9c-38,0-59.1-21.4-59.1-48.9c0-29.2,21.4-47.4,70.5-47.4h25.5c3.3,0,6-3.1,5.2-6.4
		c-3.2-12.1-13.8-18.8-32.7-18.8c-13.1,0-27.6,3.9-38.3,10.5c-2.6,1.6-6,0.6-7.4-2.2l-13.9-28c-1.2-2.5-0.4-5.5,2-6.9
		c17.9-10.4,42.8-15.9,65.8-15.9C323.5,161.7,353,184.5,353,234.8z M297.4,270.9v-7.4c0-2.9-2.4-5.3-5.3-5.3h-18.7
		c-17.8,0-24.3,6.4-24.3,16.1c0,9.4,7.6,16.1,20.8,16.1c12,0,22.5-5.5,27.1-17.4C297.3,272.3,297.4,271.6,297.4,270.9z"/>
	<path class="st0" d="M549.2,171.6l-61.2,148c-0.8,2-2.7,3.3-4.9,3.3h-50.3c-2.1,0-4.1-1.3-4.9-3.3l-60.9-148
		c-1.4-3.5,1.1-7.3,4.9-7.3h45.6c2.2,0,4.1,1.3,4.9,3.4l31.9,81.3c1.7,4.4,8,4.5,9.8,0.1l33.7-81.5c0.8-2,2.7-3.3,4.9-3.3h41.5
		C548.1,164.3,550.6,168.1,549.2,171.6z"/>
	<path class="st0" d="M560.4,117.2c0-16.7,13.5-29.5,33.9-29.5c20.5,0,33.9,12,33.9,28.7c0,17.6-13.5,30.4-33.9,30.4
		C573.8,146.8,560.4,133.9,560.4,117.2z M571.8,164.3h45c2.9,0,5.3,2.4,5.3,5.3v148c0,2.9-2.4,5.3-5.3,5.3h-45
		c-2.9,0-5.3-2.4-5.3-5.3v-148C566.5,166.7,568.9,164.3,571.8,164.3z"/>
</g>
</svg>
